<svg xmlns="http://www.w3.org/2000/svg" width="25" height="25" viewBox="0 0 24 24" fill="none" 
stroke="white" stroke-width="2" stroke-linecap="round" stroke-linejoin="round">
  <circle cx="12" cy="12" r="3"></circle>
  <path d="M19.4 15a1.65 1.65 0 0 0 .33 1.82l.06.06a1.65 1.65 0 0 1 0 2.34l-2.06 2.06a1.65 1.65 0 0 1-2.34 0l-.06-.06a1.65 1.65 0 0 0-1.82-.33 1.65 1.65 0 0 0-1 1.51V22a1.65 1.65 0 0 1-3.3 0v-.28a1.65 1.65 0 0 0-1-1.51 1.65 1.65 0 0 0-1.82.33l-.06.06a1.65 1.65 0 0 1-2.34 0L2.6 19.22a1.65 1.65 0 0 1 0-2.34l.06-.06a1.65 1.65 0 0 0 .33-1.82 1.65 1.65 0 0 0-1.51-1H2a1.65 1.65 0 0 1 0-3.3h.28a1.65 1.65 0 0 0 1.51-1 1.65 1.65 0 0 0-.33-1.82l-.06-.06a1.65 1.65 0 0 1 0-2.34L4.6 2.6a1.65 1.65 0 0 1 2.34 0l.06.06a1.65 1.65 0 0 0 1.82.33H9a1.65 1.65 0 0 0 1-1.51V2a1.65 1.65 0 0 1 3.3 0v.28a1.65 1.65 0 0 0 1 1.51 1.65 1.65 0 0 0 1.82-.33l.06-.06a1.65 1.65 0 0 1 2.34 0l2.06 2.06a1.65 1.65 0 0 1 0 2.34l-.06.06a1.65 1.65 0 0 0-.33 1.82v.34a1.65 1.65 0 0 0 1.51 1H22a1.65 1.65 0 0 1 0 3.3z"></path>
</svg>
